<svg width="59" height="38" xmlns="http://www.w3.org/2000/svg" xmlns:xlink="http://www.w3.org/1999/xlink" viewBox="0 0 806 510.2" enable-background="new 0 0 806 510.2"><style>.st0{fill:#ffce00}.st1{fill:url(#SVGID_1_)}.st2{filter:url(#Adobe_OpacityMaskFilter)}.st3{fill:url(#SVGID_3_)}.st4{mask:url(#SVGID_2_);fill:url(#SVGID_4_)}.st5{fill:url(#SVGID_5_)}.st6{fill:url(#SVGID_6_)}.st7{fill:url(#SVGID_7_)}.st8{fill:url(#SVGID_8_)}.st9{fill:url(#SVGID_9_)}.st10{fill:url(#SVGID_10_)}.st11{fill:url(#SVGID_11_)}.st12{fill:url(#SVGID_12_)}.st13{fill:url(#SVGID_13_)}.st14{fill:url(#SVGID_14_)}.st15{fill:url(#SVGID_15_)}.st16{fill:url(#SVGID_16_)}.st17{fill:url(#SVGID_17_)}.st18{fill:url(#SVGID_18_)}.st19{fill:#fff}.st20{clip-path:url(#SVGID_20_)}.st21{filter:url(#Adobe_OpacityMaskFilter_1_)}.st22{fill:url(#SVGID_22_)}.st23{mask:url(#SVGID_21_);fill:url(#SVGID_23_)}</style><path d="M574.9 398.7v11.6h-24.2v51.1h-16.3v-51.1h-24.2v-11.6h64.7zm-57.8 51.1v11.6h-51.9v-62.8h16.3v51.1h35.6zm-314.2 0v11.6h-54.5v-62.8h53.5v11.6h-37.2V424h33.9v11.3h-33.9v14.5h38.2zm-83.8-11.6c7-3.8 11.3-11.3 11.3-19.1 0-6.5-1.9-11.6-5.9-14.9-4.6-3.8-11-5.4-21.7-5.4H65.3l-.7 3.8s.7 1.1 1.4 2.5c1.2 2 1.1 2.6 1.1 3.9v52.6h16.3v-20.1h20.3l10.9 20.1h18l-13.5-23.4zm-8.3-10.2c-1.3 1.2-2.7 1.8-5.1 1.8H83.5v-19.1h17.6c5.2 0 8 .6 9.9 2.1 1.8 1.5 2.7 3.7 2.7 7.1.1 3.4-.8 6.1-2.9 8.1zm160.4-29.3v41.6c-3.8-4.8-7.8-9.4-14.6-16.8-5.5-6-17-18.4-22.8-24.8H218l-.7 3.8s.7 1.1 1.4 2.5c.9 1.5 1.1 2.2 1.1 3v53.5h14.7v-41.6c2.9 3.9 8.1 9.9 11.6 13.7 6.9 7.5 17.4 19.2 25.5 28h14.1v-62.8l-14.5-.1zm159.9 0v38.4c0 4.3-.9 6.8-2.9 8.8-2.6 2.5-7 3.6-13.3 3.6-6.4 0-10.9-1.2-13.5-3.6-2.1-2-2.9-4.5-2.9-8.8v-38.4h-18.2l-.7 3.8s.7 1.1 1.4 2.5c.8 1.4 1 2.1 1.1 2.9v29.8c0 16.4 11.1 24.8 32.6 24.8h.5c21.5 0 32-8.1 32-24.8v-39h-16.1zm-85.4 0h-20.4c-6.2 12.8-17 36.4-27 62.8h16.4c1.3-3.6 2.7-7.2 4.1-10.9h33.5c1.4 3.7 2.8 7.3 4.1 10.9h16.4c-10.2-26.4-20.9-50-27.1-62.8zm-22.3 40.1c4.3-10.7 8.6-20.8 12.1-28.7 3.5 7.8 7.8 18 12.1 28.7h-24.2z"/><path class="st0" d="M677.7 42.9h54.4V461h-54.4z"/><linearGradient id="SVGID_1_" gradientUnits="userSpaceOnUse" x1="314.069" y1="323.554" x2="314.069" y2="50.845"><stop offset="0" stop-color="#e5e5e5"/><stop offset=".687" stop-color="#fff"/><stop offset="1" stop-color="#919191"/></linearGradient><path class="st1" d="M420.6 181.9c-4.8-10.2-16.2-32.3-27.6-53.2-16.2-29.4-41.5-71.3-44.1-74.9-.7-1-1.3-1.6-1.9-2-.3-.2-.6-.4-1-.5-.6-.2-2.1-.1-3.1 0-.6.1-1.3 0-1.8 0-5.4-.2-16.3-.5-27-.5-13.2 0-29 .4-31.1.6-1.1.1-1.5.3-1.9.5-.5.3-1.1.6-1.9 1.8-2.5 3.7-27.9 45.5-44.1 74.9-11.5 20.9-22.8 43-27.6 53.2-1.3 2.7-1.5 4.5-1.5 5.3 0 1.5.5 3.3 1.5 5.3 4.8 10.2 16.2 32.3 27.6 53.2 16.2 29.4 41.5 71.3 44.1 74.9.4.6.8 1 1.1 1.4.6.6 1.1 1 1.7 1.2.6.2 1.9.1 3 0 .6-.1 1.3 0 1.8 0 6.5.2 16.5.5 27.1.5 13.2 0 28.5-.3 30.8-.6h.4c.9-.1 1.4-.2 1.6-.4.5-.2 1-.6 2.1-2.1 2.6-3.6 27.8-45.3 44-74.7 11.5-20.9 22.8-43 27.6-53.2 1.3-2.7 1.5-4.8 1.5-5.7.2-1.5-.3-3-1.3-5zm-74.7 10.8C335.1 217 327.4 232.1 316 254c-.7 1.3-1.2 2.1-1.9 2.1-.8 0-1.3-.8-1.9-2.1-11.4-21.9-19.1-37.1-29.9-61.3-.9-2.1-1.6-3.6-1.6-5.6 0-1.9.7-3.4 1.6-5.5 10.8-24.3 18.5-39.4 29.9-61.3.7-1.3 1.2-2.1 1.9-2.1.8 0 1.3.8 1.9 2.1 11.4 21.9 19.1 37.1 29.9 61.3.9 2.1 1.6 3.6 1.6 5.6 0 2-.7 3.5-1.6 5.5z"/><defs><filter id="Adobe_OpacityMaskFilter" filterUnits="userSpaceOnUse" x="206.1" y="50.8" width="216" height="272.7"><feColorMatrix values="-1 0 0 0 1 0 -1 0 0 1 0 0 -1 0 1 0 0 0 1 0" color-interpolation-filters="sRGB" result="source"/><feFlood result="back" flood-color="#fff" flood-opacity="1"/><feBlend in="source" in2="back"/></filter></defs><mask maskUnits="userSpaceOnUse" x="206.1" y="50.8" width="216" height="272.7" id="SVGID_2_"><g class="st2"><linearGradient id="SVGID_3_" gradientUnits="userSpaceOnUse" x1="310.643" y1="343.005" x2="310.643" y2="189.294"><stop offset=".855" stop-color="#fff"/><stop offset="1"/></linearGradient><path class="st3" d="M171.9 189.3h277.5V343H171.9z"/></g></mask><radialGradient id="SVGID_4_" cx="301.714" cy="121.177" r="136.482" gradientTransform="matrix(.9963 0 0 1 -.624 0)" gradientUnits="userSpaceOnUse"><stop offset=".401" stop-color="#fff"/><stop offset="1" stop-color="#919191"/></radialGradient><path class="st4" d="M420.6 181.9c-4.8-10.2-16.2-32.3-27.6-53.2-16.2-29.4-41.5-71.3-44.1-74.9-.7-1-1.3-1.6-1.9-2-.3-.2-.6-.4-1-.5-.6-.2-2.1-.1-3.1 0-.6.1-1.3 0-1.8 0-5.4-.2-16.3-.5-27-.5-13.2 0-29 .4-31.1.6-1.1.1-1.5.3-1.9.5-.5.3-1.1.6-1.9 1.8-2.5 3.7-27.9 45.5-44.1 74.9-11.5 20.9-22.8 43-27.6 53.2-1.3 2.7-1.5 4.5-1.5 5.3 0 1.5.5 3.3 1.5 5.3 4.8 10.2 16.2 32.3 27.6 53.2 16.2 29.4 41.5 71.3 44.1 74.9.4.6.8 1 1.1 1.4.6.6 1.1 1 1.7 1.2.6.2 1.9.1 3 0 .6-.1 1.3 0 1.8 0 6.5.2 16.5.5 27.1.5 13.2 0 28.5-.3 30.8-.6h.4c.9-.1 1.4-.2 1.6-.4.5-.2 1-.6 2.1-2.1 2.6-3.6 27.8-45.3 44-74.7 11.5-20.9 22.8-43 27.6-53.2 1.3-2.7 1.5-4.8 1.5-5.7.2-1.5-.3-3-1.3-5zm-74.7 10.8C335.1 217 327.4 232.1 316 254c-.7 1.3-1.2 2.1-1.9 2.1-.8 0-1.3-.8-1.9-2.1-11.4-21.9-19.1-37.1-29.9-61.3-.9-2.1-1.6-3.6-1.6-5.6 0-1.9.7-3.4 1.6-5.5 10.8-24.3 18.5-39.4 29.9-61.3.7-1.3 1.2-2.1 1.9-2.1.8 0 1.3.8 1.9 2.1 11.4 21.9 19.1 37.1 29.9 61.3.9 2.1 1.6 3.6 1.6 5.6 0 2-.7 3.5-1.6 5.5z"/><linearGradient id="SVGID_5_" gradientUnits="userSpaceOnUse" x1="260.147" y1="322.216" x2="260.147" y2="187.876"><stop offset=".01" stop-color="#e5e5e5"/><stop offset=".339" stop-color="#a7a7a7"/><stop offset=".694" stop-color="#303030"/><stop offset=".845" stop-color="#131313"/><stop offset=".948" stop-color="#090909"/><stop offset=".962" stop-color="#0c0c0c"/><stop offset=".972" stop-color="#151515"/><stop offset=".981" stop-color="#252525"/><stop offset=".989" stop-color="#3c3c3c"/><stop offset=".997" stop-color="#595959"/><stop offset="1" stop-color="#666"/></linearGradient><path class="st5" d="M273.9 196s-3.2-6-3.3-8.3v-.7c.1-.6-.2-.4-.7.1-.9.9-2.6 1.7-6.6 1.7h-48.1c-2.1 0-4.9-.2-4.9 3.2 0 2 1.7 5.9 5.2 12.8 19.1 37.4 40.3 74.7 63.1 111.2 0 0 3.5 5.6 3.8 6 .4.4.8.6 1.6.6 0 0 14.4-26.4 26.1-55.2-13-24-25-47.6-36.2-71.4z"/><linearGradient id="SVGID_6_" gradientUnits="userSpaceOnUse" x1="283.977" y1="322.589" x2="283.977" y2="322.588"><stop offset=".01" stop-color="#e5e5e5"/><stop offset=".339" stop-color="#a7a7a7"/><stop offset=".694" stop-color="#303030"/><stop offset=".845" stop-color="#131313"/><stop offset=".948" stop-color="#090909"/><stop offset=".962" stop-color="#0c0c0c"/><stop offset=".972" stop-color="#151515"/><stop offset=".981" stop-color="#252525"/><stop offset=".989" stop-color="#3c3c3c"/><stop offset=".997" stop-color="#595959"/><stop offset="1" stop-color="#666"/></linearGradient><linearGradient id="SVGID_7_" gradientUnits="userSpaceOnUse" x1="352.74" y1="322.21" x2="352.74" y2="187.753"><stop offset=".01" stop-color="#e5e5e5"/><stop offset=".339" stop-color="#a7a7a7"/><stop offset=".694" stop-color="#303030"/><stop offset=".845" stop-color="#131313"/><stop offset=".954" stop-color="#090909"/><stop offset=".966" stop-color="#0c0c0c"/><stop offset=".975" stop-color="#151515"/><stop offset=".983" stop-color="#252525"/><stop offset=".99" stop-color="#3c3c3c"/><stop offset=".997" stop-color="#595959"/><stop offset="1" stop-color="#666"/></linearGradient><path class="st7" d="M419.4 187.5c-.5.5-2 1.3-5.2 1.3h-39.7c-18.2 0-16.3-.5-21.1 9.1-2.1 4.3-4.3 9.3-6.5 13.5-15.9 33.2-54.6 100.1-59.9 108.3-2 3.1-2.3 3.3-.8 3.3 0 0 13.1.5 27.8.5 22.9 0 31-.6 31-.6 13.3-20.6 44.9-72.9 67.4-118.2 5.2-10.4 7.8-15 7.5-17.2.1-.4-.3-.2-.5 0z"/><linearGradient id="SVGID_8_" gradientUnits="userSpaceOnUse" x1="308.207" y1="186.301" x2="308.207" y2="50.965"><stop offset="0" stop-color="#303030"/><stop offset=".011" stop-color="#222"/><stop offset=".025" stop-color="#171717"/><stop offset=".04" stop-color="#131313"/><stop offset=".14" stop-color="#0e0e0e"/><stop offset=".252"/></linearGradient><path class="st8" d="M344 51.8c-1 0-1.7.7-3 2.8-11.2 17.4-49.9 90.3-65.7 124.3-1.9 4.2-2.9 6.2-2.9 8.2h8.2c0-1.9.7-3.4 1.6-5.5 10.8-24.3 18.5-39.4 29.9-61.3.7-1.3 1.2-2.1 1.9-2.1l3.2-9.3C328.4 81.1 344 51.8 344 51.8z"/><linearGradient id="SVGID_9_" gradientUnits="userSpaceOnUse" x1="334.889" y1="187.239" x2="334.889" y2="108.895"><stop offset="0" stop-color="#747474"/><stop offset=".141" stop-color="#6f6f6f"/><stop offset=".316" stop-color="#5f5f5f"/><stop offset=".508" stop-color="#464646"/><stop offset=".712" stop-color="#242424"/><stop offset=".795" stop-color="#131313"/><stop offset=".921"/></linearGradient><path class="st9" d="M355.7 187.2c0-2-.9-4-2.9-8.1-10.9-23.2-22.4-45.8-35.6-70.2l-3.2 9.3c.8 0 1.3.8 1.9 2.1 11.4 21.9 19.1 37.1 29.9 61.3.9 2.1 1.6 3.6 1.6 5.6h8.3z"/><linearGradient id="SVGID_10_" gradientUnits="userSpaceOnUse" x1="293.21" y1="265.667" x2="293.21" y2="187.283"><stop offset=".357" stop-color="#bfbfbf"/><stop offset=".474" stop-color="#bababa"/><stop offset=".61" stop-color="#acacac"/><stop offset=".754" stop-color="#959595"/><stop offset=".903" stop-color="#757575"/><stop offset=".963" stop-color="#666"/><stop offset="1" stop-color="#303030"/></linearGradient><path class="st10" d="M314.1 256.2c-.8 0-1.3-.8-1.9-2.1-11.4-21.9-19.1-37.1-29.9-61.3-.9-2.1-1.6-3.6-1.6-5.6h-8.2c0 2 .9 4.1 2.9 8.2 10.9 23.2 22.3 45.8 35.5 70.2l3.2-9.4z"/><linearGradient id="SVGID_11_" gradientUnits="userSpaceOnUse" x1="323.988" y1="239.094" x2="252.687" y2="206.931"><stop offset=".013" stop-color="#f1f1f1" stop-opacity=".8"/><stop offset=".11" stop-color="#ededed" stop-opacity="0"/></linearGradient><path class="st11" d="M314.1 256.2c-.8 0-1.3-.8-1.9-2.1-11.4-21.9-19.1-37.1-29.9-61.3-.9-2.1-1.6-3.6-1.6-5.6h-8.2c0 2 .9 4.1 2.9 8.2 10.9 23.2 22.3 45.8 35.5 70.2l3.2-9.4z"/><linearGradient id="SVGID_12_" gradientUnits="userSpaceOnUse" x1="319.846" y1="321.732" x2="319.846" y2="186.371"><stop offset="0" stop-color="#fff"/><stop offset=".216" stop-color="#f9f9f9"/><stop offset=".512" stop-color="#e7e7e7"/><stop offset=".851" stop-color="#cbcbcb"/><stop offset=".969" stop-color="#bfbfbf"/><stop offset=".991" stop-color="#747474"/></linearGradient><path class="st12" d="M284 322.6c.9 0 2-1.1 3.2-3 .3-.5.8-1.3 1.3-2.2 8.4-14.4 49.2-89.6 64.2-122 1.9-4.2 2.9-6.2 2.9-8.3h-8.2c0 2-.7 3.5-1.6 5.5-10.8 24.3-18.5 39.4-29.9 61.3-.7 1.3-1.2 2.1-1.9 2.1l-3.3 9.4C299 295 284 322.6 284 322.6z"/><linearGradient id="SVGID_13_" gradientUnits="userSpaceOnUse" x1="240.562" y1="327.084" x2="240.562" y2="187.2"><stop offset="0" stop-color="#666"/><stop offset=".201" stop-color="#5d5d5d"/><stop offset=".592" stop-color="#505050"/><stop offset=".97" stop-color="#4c4c4c"/><stop offset=".988" stop-color="#757575"/><stop offset="1" stop-color="#8c8c8c"/></linearGradient><path class="st13" d="M280.4 322c-.3-.4-.7-.8-1.1-1.4-2.6-3.6-27.9-45.5-44.1-74.9-11.5-20.9-22.8-43-27.6-53.2-1-2.1-1.5-3.9-1.5-5.3h-5.3c0 1.8.4 4.2 2 7.6 3.8 8.2 14.3 28.9 27.8 53.5 14.7 26.8 41.5 71.4 44.5 75.5 1.2 1.7 2.3 2.7 3.3 3.3l2-5.1z"/><linearGradient id="SVGID_14_" gradientUnits="userSpaceOnUse" x1="287.213" y1="310.168" x2="341.082" y2="341.269"><stop offset=".019" stop-color="#666"/><stop offset=".022" stop-color="#626262"/><stop offset=".043" stop-color="#454545"/><stop offset=".064" stop-color="#313131"/><stop offset=".085" stop-color="#242424"/><stop offset=".105" stop-color="#202020"/></linearGradient><path class="st14" d="M278.3 327.1c1.4.9 2.8 1 4.4 1.2 4 .4 21.4.6 31.4.6s28.8-.4 31.4-.6c1.2-.1 2.4-.2 3.5-.7l-2.1-5c-.3.1-.8.3-1.6.4h-.4c-2.3.3-17.7.6-30.8.6-10.6 0-20.6-.2-27.1-.5h-1.8c-1.1.1-2.3.2-3 0-.6-.2-1.1-.6-1.7-1.2l-2.2 5.2z"/><linearGradient id="SVGID_15_" gradientUnits="userSpaceOnUse" x1="327.986" y1="85.327" x2="447.391" y2="150.699"><stop offset="0" stop-color="#595959"/><stop offset="1" stop-color="#747474"/></linearGradient><path class="st15" d="M427.4 187.2c0-1.5-.3-4.1-2-7.6-4-8.4-16.9-33.8-27.8-53.5-14.5-26.4-41.4-71.3-44.5-75.5-1.6-2.2-2.9-3.2-4.1-3.8l-2 4.9c.6.4 1.2 1.1 1.9 2 2.6 3.6 27.9 45.5 44.1 74.9 11.5 20.9 22.8 43 27.6 53.2 1 2.1 1.5 3.5 1.5 5l5.3.4z"/><linearGradient id="SVGID_16_" gradientUnits="userSpaceOnUse" x1="345.8" y1="58.178" x2="281.122" y2="39.631"><stop offset=".01" stop-color="#595959"/><stop offset=".026" stop-color="#767676"/><stop offset=".044" stop-color="#919191"/><stop offset=".061" stop-color="#a1a1a1"/><stop offset=".074" stop-color="#a7a7a7"/><stop offset=".501" stop-color="#bebebe"/><stop offset="1" stop-color="#bfbfbf"/></linearGradient><path class="st16" d="M279 46.9l2.1 5.1c.4-.2.8-.4 1.9-.5 2.1-.2 17.9-.6 31.1-.6 10.7 0 21.6.2 27 .5h1.8c1.1-.1 2.5-.2 3.1 0 .3.1.7.3 1 .5l2-4.9c-1.2-.5-2.3-.6-3.7-.7-4.1-.4-22-.6-31.3-.6-8.2 0-27.3.2-31.8.7-1.3-.1-2.3.1-3.2.5z"/><linearGradient id="SVGID_17_" gradientUnits="userSpaceOnUse" x1="182.63" y1="140.047" x2="297.97" y2="95.772"><stop offset="0" stop-color="#8c8c8c"/><stop offset=".987" stop-color="#747474"/><stop offset="1" stop-color="#bfbfbf"/></linearGradient><path class="st17" d="M279 46.9c-1.7.7-2.7 1.9-4.2 4-3.1 4-29.9 49.2-44.3 75.2-10.1 18.3-26.3 50-27.8 53.5s-2 5.8-2 7.6h5.3c0-.8.2-2.6 1.5-5.3 4.8-10.2 16.2-32.3 27.6-53.2 16.2-29.4 41.6-71.2 44.1-74.9.8-1.3 1.4-1.6 1.9-1.8l-2.1-5.1z"/><linearGradient id="SVGID_18_" gradientUnits="userSpaceOnUse" x1="387.161" y1="327.516" x2="387.161" y2="186.861"><stop offset=".019" stop-color="#202020"/><stop offset=".257" stop-color="#2c2c2c"/><stop offset=".619" stop-color="#393939"/><stop offset=".97" stop-color="#3d3d3d"/><stop offset=".986" stop-color="#5d5d5d"/><stop offset="1" stop-color="#747474"/></linearGradient><path class="st18" d="M349 327.5c1.3-.6 2.6-1.6 4.1-3.8 2.9-4 31.7-52.1 44.5-75.5 12.8-23.3 26.3-50.2 27.8-53.5 1.8-4.1 2-6.1 2-7.6l-5.3-.3c0 .8-.2 3-1.5 5.7-4.8 10.2-16.2 32.3-27.6 53.2-16.2 29.4-41.4 71.1-44 74.7-1.1 1.5-1.5 1.9-2.1 2.1l2.1 5z"/><path class="st19" d="M342.9 51.3h.3s-1.3 1-4.8 1c-4.1 0-12.6-.2-19.4-.2-12.6-.1-27.6.2-34.6.5-3.7.2-3.9.6-6.3 3.1l1.2-1.8c.8-1.3 1.4-1.6 1.9-1.8.4-.2.8-.4 1.9-.5 2.1-.2 17.9-.6 31.1-.6 10.7 0 21.6.2 27 .5.4-.2 1.1-.2 1.7-.2"/><defs><path id="SVGID_19_" d="M427.4 187.2c0-1.3-.3-4-2-7.6-4.1-8.6-16.9-33.8-27.8-53.5-.8-1.5-1.7-3.1-2.6-4.7-11.7-7.1-25.5-11.2-40.2-11.2-14.6 0-28.3 4.1-40 11.1 1 1.9 9 17.2 16.3 32.1 6.8 14 12.8 27.4 13.5 28.9.9 2 1.4 3.3 1.4 4.9 0 1.6-.5 2.8-1.4 4.8v.1c-.1.1-6.3 14.2-13.5 29-6.5 13.2-13.5 26.8-16.2 32l-.1.2c-.3.5-.5.9-.6.9-.1 0-.3-.4-.6-.9 0-.1-.2-.3-.4-.8-7.6-14.6-12.9-25.2-16-31.5-6.9-14.2-13.1-28-13.5-29l-.1-.1c-.8-1.8-1.4-3.3-1.4-4.8s.7-3.2 1.5-4.8c0-.1.2-.4.4-.8 4.4-9.9 8.8-19.4 13.1-28.1 6.3-12.7 13.3-26.3 15.6-30.8-21.5 13.9-35.8 38.2-35.8 65.8 0 43.2 34.9 78.3 78 78.3 13.9 0 26.9-3.6 38.2-10 1.7-3 3.3-5.8 4.6-8.3 12.4-22.7 26.2-49.9 27.8-53.5 1.6-4 1.8-6.1 1.8-7.7z"/></defs><clipPath id="SVGID_20_"><use xlink:href="#SVGID_19_" overflow="visible"/></clipPath><g class="st20"><defs><filter id="Adobe_OpacityMaskFilter_1_" filterUnits="userSpaceOnUse" x="277.1" y="110.2" width="156.5" height="156.5"><feColorMatrix values="1 0 0 0 0 0 1 0 0 0 0 0 1 0 0 0 0 0 1 0"/></filter></defs><mask maskUnits="userSpaceOnUse" x="277.1" y="110.2" width="156.5" height="156.5" id="SVGID_21_"><g id="XMLID_1_" class="st21"><radialGradient id="SVGID_22_" cx="355.63" cy="188.403" r="23.329" gradientUnits="userSpaceOnUse"><stop offset=".166" stop-color="#fff"/><stop offset=".188" stop-color="#ebebeb"/><stop offset=".246" stop-color="#bababa"/><stop offset=".308" stop-color="#8e8e8e"/><stop offset=".374" stop-color="#686868"/><stop offset=".444" stop-color="#474747"/><stop offset=".519" stop-color="#2d2d2d"/><stop offset=".602" stop-color="#191919"/><stop offset=".695" stop-color="#0b0b0b"/><stop offset=".809" stop-color="#030303"/><stop offset="1"/></radialGradient><circle class="st22" cx="355.6" cy="188.4" r="23.3"/></g></mask><radialGradient id="SVGID_23_" cx="355.387" cy="188.404" r="78.241" gradientUnits="userSpaceOnUse"><stop offset="0" stop-color="#fff"/><stop offset=".59" stop-color="#fff" stop-opacity="0"/></radialGradient><circle class="st23" cx="355.4" cy="188.4" r="78.2"/></g><path d="M345.9 181.7c-.4-1-6.5-14.7-13.5-29-7.6-15.5-16.1-31.7-16.4-32.4-.7-1.3-1.2-2.1-1.9-2.1s-1.2.7-1.9 2.1c-.4.7-9 17.3-16.5 32.4-7.4 15-13.1 28.2-13.5 29-.8 1.7-1.6 3.6-1.6 5.5s.7 3.5 1.6 5.6c.4 1 6.6 14.8 13.5 29.1 7.6 15.5 16.1 31.6 16.4 32.3.6 1.3 1.2 2.1 1.9 2.1s1.3-.8 1.9-2.1c.3-.7 8.8-16.7 16.4-32.3 7-14.2 13.1-28 13.6-29.1.9-2.2 1.6-3.6 1.6-5.5 0-2-.6-3.5-1.6-5.6zm-1.3 10.3v.1c-.1.1-6.3 14.2-13.5 29-6.5 13.2-13.5 26.8-16.2 32l-.1.2c-.3.5-.5.9-.6.9-.1 0-.3-.4-.6-.9 0-.1-.2-.3-.4-.8-7.6-14.6-12.9-25.2-16-31.5-6.9-14.2-13.1-28-13.5-29l-.1-.1c-.8-1.8-1.4-3.3-1.4-4.8s.7-3.2 1.5-4.8c0-.1.2-.4.4-.8 4.4-9.9 8.8-19.4 13.1-28.1 7.6-15.4 16.4-32.2 16.4-32.3.2-.5.5-.9.6-.9.1 0 .4.4.6.9.1.1 8.6 16.4 16.4 32.3 6.8 14 12.8 27.4 13.5 28.9.9 2 1.4 3.3 1.4 4.9-.1 1.6-.6 2.8-1.5 4.8z"/><path d="M425.5 179.6c-4.1-8.6-16.9-33.8-27.8-53.5-14.9-27-41.5-71.4-44.5-75.5-3-4-4.6-4.2-7.4-4.5h-.4c-4-.4-21.1-.6-31.3-.6-8.8 0-27.4.2-31.8.7-4.1.4-5.2 1.7-7.5 4.7-3.2 4.2-30.2 49.9-44.3 75.2-10.2 18.4-26.3 50.1-27.8 53.5-1.4 3.1-2 5.5-2 7.6 0 2.3.6 4.7 2 7.6 3.4 7.3 13.6 27.6 27.8 53.5 14.8 27 41.6 71.6 44.5 75.5 3 4.1 5 4.3 7.7 4.5 4.1.4 21.9.6 31.4.6 10.3 0 28.9-.4 31.4-.6 2.5-.2 4.7-.4 7.7-4.5 2.7-3.7 31.5-51.8 44.5-75.5 12.4-22.7 26.2-49.9 27.8-53.5 1.7-3.9 2-6 2-7.6-.1-1.3-.3-4-2-7.6zm-1.5 14.6c-1.6 3.5-15.3 30.7-27.7 53.4-12.9 23.6-41.7 71.6-44.4 75.3-2.5 3.5-4.1 3.7-6.6 3.9-2.5.2-21.1.6-31.3.6-9.5 0-27.2-.3-31.3-.6-2.6-.2-4-.4-6.6-3.9-2.8-3.9-29.6-48.4-44.4-75.3-14.2-25.8-24.4-46.1-27.7-53.4-1.3-2.7-1.8-4.9-1.8-7 0-1.9.6-4.1 1.9-7 1.5-3.4 17.6-35 27.7-53.4 14.1-25.3 41-70.9 44.2-75.1 2.2-2.9 3-3.8 6.5-4.1 4.3-.4 22.9-.7 31.6-.7 10.2 0 27.2.2 31.1.6h.4c2.6.3 3.8.4 6.3 3.9 3 4 29.5 48.3 44.4 75.3 10.8 19.7 23.6 44.8 27.7 53.4 1.6 3.3 1.8 5.8 1.8 7 .1 1.6-.1 3.5-1.8 7.1z"/></svg>